<svg xmlns="http://www.w3.org/2000/svg" width="80" height="80" viewBox="0 0 80 80" fill="none"><path d="M54.1169 40.9444L41.176 16.8275C40.7691 16.1788 39.9134 15.983 39.2649 16.3897C39.088 16.5007 38.9383 16.6504 38.8272 16.8275L25.8863 40.9444C23.2609 45.7827 23.3984 51.6505 26.2475 56.3607C30.8441 63.9569 40.7282 66.3884 48.3244 61.7919C50.547 60.4469 52.4106 58.5833 53.7556 56.3607C56.6046 51.6506 56.7422 45.7829 54.1169 40.9444ZM51.4695 54.9903C49.0639 59.0255 44.6993 61.4831 40.0016 61.4475C35.3052 61.4816 30.9426 59.0244 28.5377 54.9903C26.1757 51.0833 26.0621 46.2171 28.2391 42.2041L40.0016 20.2773L51.7681 42.2041C53.9451 46.2171 53.8314 51.0834 51.4695 54.9903Z" fill="#111111"></path><path d="M79.3453 32.9673C78.7276 29.5782 77.6742 26.2835 76.2116 23.1648C75.9775 22.6734 75.4701 22.3718 74.9266 22.401C74.382 22.4331 73.9121 22.7939 73.7402 23.3114L72.2805 27.7104L68.4668 26.8039C67.7508 26.6324 67.0314 27.0737 66.8598 27.7897C66.7935 28.0664 66.8175 28.3574 66.9285 28.6195C68.4784 32.2548 69.2717 36.1675 69.2599 40.1194C69.1539 53.8276 59.6141 65.6544 46.2388 68.6592C45.9372 68.7262 45.6677 68.8953 45.4763 69.1378L41.6732 73.9779C41.2178 74.5563 41.3175 75.3944 41.896 75.8498C41.8963 75.8502 41.8968 75.8505 41.8971 75.8508L46.1361 79.1833C46.3711 79.3681 46.6612 79.4686 46.9599 79.4686C47.0406 79.4683 47.1209 79.4598 47.1999 79.4433C68.9105 75.4859 83.3025 54.6779 79.3453 32.9673ZM52.5966 75.2411C50.8712 75.859 49.1026 76.3487 47.3052 76.7066V76.7079L44.5925 74.5751L47.2812 71.1546C61.6492 67.6978 71.8143 54.897 71.9259 40.1194C71.9368 36.672 71.3851 33.2462 70.293 29.9765L72.8524 30.5843C73.5247 30.744 74.2077 30.363 74.4253 29.7072L75.1425 27.5451C82.0875 46.9417 71.9934 68.296 52.5966 75.2411Z" fill="#111111"></path><path d="M70.3396 14.0641C62.7623 5.24142 51.7194 0.154309 40.0896 0.128815H40.0016C27.1853 0.156641 15.1535 6.30534 7.62267 16.6755C7.19044 17.2715 7.32341 18.105 7.91943 18.5372C8.14721 18.7024 8.42115 18.7912 8.70241 18.791H12.8454L13.3546 22.4888C13.4103 22.898 13.6526 23.2584 14.0105 23.4646L14.1944 23.5699C14.7913 23.9125 15.5508 23.7443 15.9473 23.182C21.443 15.3792 30.3871 10.7326 39.9309 10.7223H40.0016C48.5445 10.7431 56.6529 14.4917 62.2029 20.9865C62.4562 21.2826 62.8264 21.453 63.216 21.453H69.3279C70.064 21.453 70.6609 20.8562 70.6609 20.12V14.9333C70.6604 14.6147 70.5466 14.3066 70.3396 14.0641ZM67.9949 18.791H63.8172C57.7707 11.983 49.1071 8.07791 40.0016 8.05625H39.9296C30.5718 8.06758 21.6866 12.1689 15.6074 19.2829L15.3315 17.2834C15.2438 16.6197 14.6773 16.124 14.0078 16.125H11.4338C18.5304 7.69367 28.9812 2.81717 40.0016 2.79484H40.0829C50.7667 2.81817 60.9282 7.4189 67.9949 15.4318V18.791Z" fill="#111111"></path><path d="M37.3915 69.2603C21.2694 67.8731 9.32426 53.6791 10.7113 37.5568C10.8974 35.3934 11.3234 33.2574 11.9816 31.188C12.0759 30.8939 12.0646 30.5762 11.9496 30.2896L9.81681 24.9575C9.54404 24.2737 8.76856 23.9406 8.08472 24.2134C8.08439 24.2135 8.08422 24.2135 8.08389 24.2137L2.97178 26.2626C2.61304 26.4064 2.33377 26.6978 2.2053 27.0624C-5.00764 47.921 6.05455 70.6777 26.9132 77.8905C29.7804 78.8819 32.751 79.5438 35.7679 79.863C35.8122 79.868 35.8567 79.8707 35.9012 79.871C36.6374 79.8712 37.2344 79.2745 37.2344 78.5382C37.2344 78.2764 37.1574 78.0205 37.013 77.8022L34.5709 74.1111L38.0127 71.8343C38.3856 71.5874 38.6099 71.1698 38.6099 70.7226V70.5893C38.6102 69.8973 38.081 69.3197 37.3915 69.2603ZM31.6113 74.4722C31.6113 74.4723 31.6114 74.4723 31.6114 74.4725V74.4658L33.1551 76.7999C12.9041 73.0342 -0.460062 53.5648 3.30554 33.3137C3.60796 31.6871 4.01837 30.0823 4.53391 28.51L7.83578 27.189L9.3021 30.8455C8.40581 33.8099 7.94642 36.889 7.93843 39.9859C7.98841 55.2754 18.7833 68.4216 33.7709 71.4451L31.9873 72.6248C31.3735 73.031 31.205 73.8581 31.6113 74.4722Z" fill="#111111"></path></svg>