<svg xmlns="http://www.w3.org/2000/svg" width="80" height="80" viewBox="0 0 80 80" fill="none"><g clip-path="url(#clip0)"><path d="M79.5108 38.3007L65.3329 26.7001V9.99809C65.3329 9.26172 64.7358 8.66469 63.9995 8.66469H53.3323C52.596 8.66469 51.9989 9.26172 51.9989 9.99809V16.557L40.8318 7.62332C40.3454 7.23547 39.6554 7.23547 39.169 7.62332L0.500683 38.2913C-0.0745083 38.7512 -0.167846 39.5904 0.292008 40.1654C0.544352 40.4809 0.926035 40.6651 1.33005 40.6661H11.9972V71.3341C11.9972 72.0705 12.5942 72.6675 13.3306 72.6675H66.6662C67.4026 72.6675 67.9996 72.0705 67.9996 71.3341V40.6661H78.6668C79.4031 40.6659 80 40.0689 80 39.3325C79.9998 38.9325 79.8203 38.5538 79.5108 38.3007ZM38.665 63.2564L34.8702 60.411C29.7471 56.5471 26.716 50.5175 26.6712 44.1009L38.665 57.1855V63.2564ZM38.665 53.2386L27.0018 40.5141C27.5412 37.4275 28.7769 34.5045 30.6153 31.967L38.665 41.1661V53.2386ZM38.665 37.1179L32.3394 29.8896C33.1178 29.0528 33.9653 28.2829 34.8729 27.5882L38.665 24.7427V37.1179ZM66.6662 37.9993C65.9299 37.9993 65.3329 38.5963 65.3329 39.3327V70.0007H41.3318V66.7446L46.932 62.5431C57.1733 54.8631 59.2496 40.3349 51.5696 30.0936C50.2514 28.3357 48.69 26.7743 46.932 25.4561L40.9011 20.9319C40.4271 20.5764 39.7751 20.5764 39.301 20.9319L33.2701 25.4561C23.0288 33.1361 20.9526 47.6642 28.6326 57.9055C29.9508 59.6634 31.5122 61.2248 33.2701 62.5431L38.665 66.5899V70.0007H14.664V39.3327C14.664 38.5963 14.0669 37.9993 13.3306 37.9993H5.15689L39.9984 10.3688L52.503 20.3692C53.0797 20.8272 53.9184 20.7312 54.3764 20.1545C54.5624 19.9205 54.6642 19.6307 54.6657 19.3318V11.3315H62.6661V27.3322C62.6661 27.7322 62.8457 28.111 63.1554 28.3642L74.9333 37.9993H66.6662ZM53.091 39.9007C53.3785 41.2483 53.5282 42.6217 53.5377 43.9996C53.5227 50.453 50.4857 56.5268 45.332 60.411L41.3318 63.4111V49.3078L53.091 39.9007ZM41.3318 45.8917V24.5881L45.332 27.5882C48.5411 30.0073 50.9722 33.3126 52.3256 37.0966L41.3318 45.8917Z" fill="#111111"></path></g><defs><clipPath id="clip0"><rect width="80" height="80" fill="white"></rect></clipPath></defs></svg>