<svg xmlns="http://www.w3.org/2000/svg" width="80" height="80" viewBox="0 0 80 80" fill="none">
				<path
					d="M72.5751 10.8037C72.2005 10.6222 71.7626 10.626 71.3911 10.8143L65.6451 13.7287L61.1482 6.00418C59.6089 3.11899 56.599 1.32285 53.3291 1.33802H31.1075C27.7897 1.34602 24.716 3.08316 22.9977 5.92152L18.8648 12.6381C18.4828 13.2587 18.6698 14.071 19.2848 14.4619L33.9498 23.7942C34.1635 23.9301 34.4113 24.0021 34.6644 24.0022C34.7751 24.0024 34.8852 23.9884 34.9924 23.9609C35.3482 23.8707 35.6511 23.6378 35.8296 23.317L41.429 13.2421L47.5617 24.8408L41.9783 28.1911C41.488 28.4851 41.2397 29.059 41.361 29.6176C41.4818 30.1761 41.9451 30.5953 42.5129 30.6602L62.3547 32.9159C62.4047 32.9213 62.4551 32.9239 62.5054 32.9239C63.0163 32.9239 63.4825 32.632 63.7053 32.172L73.1936 12.5848C73.5145 11.922 73.2377 11.1246 72.5751 10.8037ZM34.1858 20.7837L21.8231 12.9179L25.2761 7.30787C26.5095 5.26359 28.7201 4.01123 31.1075 4.00423H36.5202L39.8239 10.6368L34.1858 20.7837ZM61.7175 30.1601L46.7218 28.4549L50.0161 26.4778C50.6225 26.1132 50.8385 25.3384 50.508 24.7127L39.5585 4.00423H53.3291C55.6446 4.00089 57.7699 5.28542 58.8431 7.3372L63.9732 16.1536C64.3294 16.7628 65.0984 16.989 65.7277 16.6695L69.0687 14.9764L61.7175 30.1601Z"
					fill="#111111"></path>
				<path
					d="M78.8329 38.6725L74.5241 30.0654C74.1951 29.4066 73.3944 29.1395 72.7356 29.4685C72.7091 29.4816 72.6831 29.4958 72.6576 29.5108L56.6593 38.8431C56.0324 39.2087 55.8133 40.0086 56.1661 40.6429L61.7281 50.6658H49.3295V45.3331C49.3298 44.5968 48.733 43.9997 47.9968 43.9994C47.621 43.9992 47.2625 44.1577 47.0097 44.4358L33.6778 59.1009C33.2434 59.579 33.2142 60.2998 33.6085 60.8114L46.9404 78.1428C47.3899 78.7259 48.2271 78.8343 48.8102 78.3848C49.1375 78.1325 49.3293 77.7429 49.3295 77.3296V73.33H58.6618C61.9491 73.411 64.9906 71.5957 66.4796 68.6639L75.8119 52.6736L78.585 48.1941C80.3786 45.2972 80.4734 41.6588 78.8329 38.6725ZM64.1612 67.352C63.134 69.4368 60.985 70.7308 58.6618 70.6637H47.9963C47.26 70.6637 46.6631 71.2606 46.6631 71.9968V73.41L36.3975 60.0701L46.6631 48.7807V51.999C46.6631 52.7353 47.26 53.3322 47.9963 53.3322H72.339L64.1612 67.352ZM76.3119 46.7969L73.9121 50.6632H64.7785L59.1284 40.4949L72.7709 32.5345L76.4705 39.9203C77.6647 42.0726 77.6041 44.702 76.3119 46.7969Z"
					fill="#111111"></path>
				<path
					d="M31.8754 40.7749L23.8763 23.4434C23.6463 22.9425 23.1319 22.6345 22.5818 22.6689L1.25073 24.002C0.515813 24.0477 -0.0429595 24.6803 0.00270223 25.4152C0.0295327 25.8465 0.263507 26.2381 0.630801 26.4658L0.632134 26.4684L7.22342 30.556L2.8239 39.3657C1.22924 42.2629 1.2384 45.777 2.84789 48.666L10.2671 61.478L14.324 68.5052C16.0663 71.4649 19.2315 73.2957 22.6658 73.33H27.9985C28.7348 73.33 29.3317 72.7331 29.3317 71.9968V53.3322C29.3317 52.596 28.7348 51.999 27.9985 51.999H18.0382L24.6882 40.4603L30.1863 42.5774C30.8735 42.8415 31.6449 42.4985 31.9091 41.8113C32.0382 41.4755 32.0261 41.1017 31.8754 40.7749ZM26.6653 54.6654V70.6637H22.6658C20.1814 70.6397 17.8911 69.3156 16.6304 67.1747L12.9708 60.8341L16.7464 54.6654H26.6653ZM24.5815 37.5619C23.9689 37.3266 23.2762 37.5719 22.9484 38.1405L11.4163 58.149L5.15564 47.3329C4.00477 45.2301 4.02193 42.682 5.20097 40.5949L10.1591 30.6573C10.4696 30.0397 10.2566 29.2873 9.66849 28.9242L5.59026 26.4018L21.8378 25.3899L28.0772 38.9084L24.5815 37.5619Z"
					fill="#111111"></path>
			</svg>